#define cursor_width 128
#define cursor_height 128
#define cursor_x_hot 64
#define cursor_y_hot 64
static unsigned short cursor_bits[] = {
   0x0000, 0x0000, 0x0000, 0x8000, 0x0001, 0x0000, 0x0000, 0x0000, 0x0000,
   0x0000, 0x0000, 0x8000, 0x0001, 0x0000, 0x0000, 0x0000, 0x0000, 0x0000,
   0x0000, 0x8000, 0x0001, 0x0000, 0x0000, 0x0000, 0x0000, 0x0000, 0x0000,
   0x8000, 0x0001, 0x0000, 0x0000, 0x0000, 0x0000, 0x0000, 0x0000, 0x8000,
   0x0001, 0x0000, 0x0000, 0x0000, 0x0000, 0x0000, 0x0000, 0x8000, 0x0001,
   0x0000, 0x0000, 0x0000, 0x0000, 0x0000, 0x0000, 0x8000, 0x0001, 0x0000,
   0x0000, 0x0000, 0x0000, 0x0000, 0x0000, 0x8000, 0x0001, 0x0000, 0x0000,
   0x0000, 0x0000, 0x0000, 0x0000, 0x8000, 0x0001, 0x0000, 0x0000, 0x0000,
   0x0000, 0x0000, 0x0000, 0x8000, 0x0001, 0x0000, 0x0000, 0x0000, 0x0000,
   0x0000, 0x0000, 0x8000, 0x0001, 0x0000, 0x0000, 0x0000, 0x0000, 0x0000,
   0x0000, 0x8000, 0x0001, 0x0000, 0x0000, 0x0000, 0x0000, 0x0000, 0x0000,
   0x8000, 0x0001, 0x0000, 0x0000, 0x0000, 0x0000, 0x0000, 0x0000, 0x8000,
   0x0001, 0x0000, 0x0000, 0x0000, 0x0000, 0x0000, 0x0000, 0x8000, 0x0001,
   0x0000, 0x0000, 0x0000, 0x0000, 0x0000, 0x0000, 0x8000, 0x0001, 0x0000,
   0x0000, 0x0000, 0x0000, 0x0000, 0x0000, 0x8000, 0x0001, 0x0000, 0x0000,
   0x0000, 0x0000, 0x0000, 0x0000, 0x8000, 0x0001, 0x0000, 0x0000, 0x0000,
   0x0000, 0x0000, 0x0000, 0x8000, 0x0001, 0x0000, 0x0000, 0x0000, 0x0000,
   0x0000, 0x0000, 0x8000, 0x0001, 0x0000, 0x0000, 0x0000, 0x0000, 0x0000,
   0x0000, 0x8000, 0x0001, 0x0000, 0x0000, 0x0000, 0x0000, 0x0000, 0x0000,
   0x8000, 0x0001, 0x0000, 0x0000, 0x0000, 0x0000, 0x0000, 0x0000, 0x8000,
   0x0001, 0x0000, 0x0000, 0x0000, 0x0000, 0x0000, 0x0000, 0x8000, 0x0001,
   0x0000, 0x0000, 0x0000, 0x0000, 0x0000, 0x0000, 0x8000, 0x0001, 0x0000,
   0x0000, 0x0000, 0x0000, 0x0000, 0x0000, 0x8000, 0x0001, 0x0000, 0x0000,
   0x0000, 0x0000, 0x0000, 0x0000, 0x8000, 0x0001, 0x0000, 0x0000, 0x0000,
   0x0000, 0x0000, 0x0000, 0x8000, 0x0001, 0x0000, 0x0000, 0x0000, 0x0000,
   0x0000, 0x0000, 0x8000, 0x0001, 0x0000, 0x0000, 0x0000, 0x0000, 0x0000,
   0x0000, 0x8000, 0x0001, 0x0000, 0x0000, 0x0000, 0x0000, 0x0000, 0x0000,
   0x8000, 0x0001, 0x0000, 0x0000, 0x0000, 0x0000, 0x0000, 0x0000, 0x8000,
   0x0001, 0x0000, 0x0000, 0x0000, 0x0000, 0x0000, 0x0000, 0x8000, 0x0001,
   0x0000, 0x0000, 0x0000, 0x0000, 0x0000, 0x0000, 0x8000, 0x0001, 0x0000,
   0x0000, 0x0000, 0x0000, 0x0000, 0x0000, 0x8000, 0x0001, 0x0000, 0x0000,
   0x0000, 0x0000, 0x0000, 0x0000, 0x8000, 0x0001, 0x0000, 0x0000, 0x0000,
   0x0000, 0x0000, 0x0000, 0x8000, 0x0001, 0x0000, 0x0000, 0x0000, 0x0000,
   0x0000, 0x0000, 0x8000, 0x0001, 0x0000, 0x0000, 0x0000, 0x0000, 0x0000,
   0x0000, 0x8000, 0x0001, 0x0000, 0x0000, 0x0000, 0x0000, 0x0000, 0x0000,
   0x8000, 0x0001, 0x0000, 0x0000, 0x0000, 0x0000, 0x0000, 0x0000, 0x8000,
   0x0001, 0x0000, 0x0000, 0x0000, 0x0000, 0x0000, 0x0000, 0x8000, 0x0001,
   0x0000, 0x0000, 0x0000, 0x0000, 0x0000, 0x0000, 0x8000, 0x0001, 0x0000,
   0x0000, 0x0000, 0x0000, 0x0000, 0x0000, 0x8000, 0x0001, 0x0000, 0x0000,
   0x0000, 0x0000, 0x0000, 0x0000, 0x8000, 0x0001, 0x0000, 0x0000, 0x0000,
   0x0000, 0x0000, 0x0000, 0x8000, 0x0001, 0x0000, 0x0000, 0x0000, 0x0000,
   0x0000, 0x0000, 0x8000, 0x0001, 0x0000, 0x0000, 0x0000, 0x0000, 0x0000,
   0x0000, 0x8000, 0x0001, 0x0000, 0x0000, 0x0000, 0x0000, 0x0000, 0x0000,
   0x8000, 0x0001, 0x0000, 0x0000, 0x0000, 0x0000, 0x0000, 0x0000, 0x8000,
   0x0001, 0x0000, 0x0000, 0x0000, 0x0000, 0x0000, 0x0000, 0x8000, 0x0001,
   0x0000, 0x0000, 0x0000, 0x0000, 0x0000, 0x0000, 0xfff8, 0x1fff, 0x0000,
   0x0000, 0x0000, 0x0000, 0x0000, 0x0000, 0xfff8, 0x1fff, 0x0000, 0x0000,
   0x0000, 0x0000, 0x0000, 0x0000, 0x8018, 0x1801, 0x0000, 0x0000, 0x0000,
   0x0000, 0x0000, 0x0000, 0x8018, 0x1801, 0x0000, 0x0000, 0x0000, 0x0000,
   0x0000, 0x0000, 0x8018, 0x1801, 0x0000, 0x0000, 0x0000, 0x0000, 0x0000,
   0x0000, 0x8018, 0x1801, 0x0000, 0x0000, 0x0000, 0x0000, 0x0000, 0x0000,
   0x8018, 0x1801, 0x0000, 0x0000, 0x0000, 0x0000, 0x0000, 0x0000, 0x8018,
   0x1801, 0x0000, 0x0000, 0x0000, 0x0000, 0x0000, 0x0000, 0x8018, 0x1801,
   0x0000, 0x0000, 0x0000, 0x0000, 0x0000, 0x0000, 0x8018, 0x1801, 0x0000,
   0x0000, 0x0000, 0x0000, 0x0000, 0x0000, 0x8018, 0x1801, 0x0000, 0x0000,
   0x0000, 0x0000, 0x0000, 0x0000, 0x8018, 0x1801, 0x0000, 0x0000, 0x0000,
   0xffff, 0xffff, 0xffff, 0xffff, 0xffff, 0xffff, 0xffff, 0xffff, 0xffff,
   0xffff, 0xffff, 0xffff, 0xffff, 0xffff, 0xffff, 0xffff, 0x0000, 0x0000,
   0x0000, 0x8018, 0x1801, 0x0000, 0x0000, 0x0000, 0x0000, 0x0000, 0x0000,
   0x8018, 0x1801, 0x0000, 0x0000, 0x0000, 0x0000, 0x0000, 0x0000, 0x8018,
   0x1801, 0x0000, 0x0000, 0x0000, 0x0000, 0x0000, 0x0000, 0x8018, 0x1801,
   0x0000, 0x0000, 0x0000, 0x0000, 0x0000, 0x0000, 0x8018, 0x1801, 0x0000,
   0x0000, 0x0000, 0x0000, 0x0000, 0x0000, 0x8018, 0x1801, 0x0000, 0x0000,
   0x0000, 0x0000, 0x0000, 0x0000, 0x8018, 0x1801, 0x0000, 0x0000, 0x0000,
   0x0000, 0x0000, 0x0000, 0x8018, 0x1801, 0x0000, 0x0000, 0x0000, 0x0000,
   0x0000, 0x0000, 0x8018, 0x1801, 0x0000, 0x0000, 0x0000, 0x0000, 0x0000,
   0x0000, 0xfff8, 0x1fff, 0x0000, 0x0000, 0x0000, 0x0000, 0x0000, 0x0000,
   0xfff8, 0x1fff, 0x0000, 0x0000, 0x0000, 0x0000, 0x0000, 0x0000, 0x8000,
   0x0001, 0x0000, 0x0000, 0x0000, 0x0000, 0x0000, 0x0000, 0x8000, 0x0001,
   0x0000, 0x0000, 0x0000, 0x0000, 0x0000, 0x0000, 0x8000, 0x0001, 0x0000,
   0x0000, 0x0000, 0x0000, 0x0000, 0x0000, 0x8000, 0x0001, 0x0000, 0x0000,
   0x0000, 0x0000, 0x0000, 0x0000, 0x8000, 0x0001, 0x0000, 0x0000, 0x0000,
   0x0000, 0x0000, 0x0000, 0x8000, 0x0001, 0x0000, 0x0000, 0x0000, 0x0000,
   0x0000, 0x0000, 0x8000, 0x0001, 0x0000, 0x0000, 0x0000, 0x0000, 0x0000,
   0x0000, 0x8000, 0x0001, 0x0000, 0x0000, 0x0000, 0x0000, 0x0000, 0x0000,
   0x8000, 0x0001, 0x0000, 0x0000, 0x0000, 0x0000, 0x0000, 0x0000, 0x8000,
   0x0001, 0x0000, 0x0000, 0x0000, 0x0000, 0x0000, 0x0000, 0x8000, 0x0001,
   0x0000, 0x0000, 0x0000, 0x0000, 0x0000, 0x0000, 0x8000, 0x0001, 0x0000,
   0x0000, 0x0000, 0x0000, 0x0000, 0x0000, 0x8000, 0x0001, 0x0000, 0x0000,
   0x0000, 0x0000, 0x0000, 0x0000, 0x8000, 0x0001, 0x0000, 0x0000, 0x0000,
   0x0000, 0x0000, 0x0000, 0x8000, 0x0001, 0x0000, 0x0000, 0x0000, 0x0000,
   0x0000, 0x0000, 0x8000, 0x0001, 0x0000, 0x0000, 0x0000, 0x0000, 0x0000,
   0x0000, 0x8000, 0x0001, 0x0000, 0x0000, 0x0000, 0x0000, 0x0000, 0x0000,
   0x8000, 0x0001, 0x0000, 0x0000, 0x0000, 0x0000, 0x0000, 0x0000, 0x8000,
   0x0001, 0x0000, 0x0000, 0x0000, 0x0000, 0x0000, 0x0000, 0x8000, 0x0001,
   0x0000, 0x0000, 0x0000, 0x0000, 0x0000, 0x0000, 0x8000, 0x0001, 0x0000,
   0x0000, 0x0000, 0x0000, 0x0000, 0x0000, 0x8000, 0x0001, 0x0000, 0x0000,
   0x0000, 0x0000, 0x0000, 0x0000, 0x8000, 0x0001, 0x0000, 0x0000, 0x0000,
   0x0000, 0x0000, 0x0000, 0x8000, 0x0001, 0x0000, 0x0000, 0x0000, 0x0000,
   0x0000, 0x0000, 0x8000, 0x0001, 0x0000, 0x0000, 0x0000, 0x0000, 0x0000,
   0x0000, 0x8000, 0x0001, 0x0000, 0x0000, 0x0000, 0x0000, 0x0000, 0x0000,
   0x8000, 0x0001, 0x0000, 0x0000, 0x0000, 0x0000, 0x0000, 0x0000, 0x8000,
   0x0001, 0x0000, 0x0000, 0x0000, 0x0000, 0x0000, 0x0000, 0x8000, 0x0001,
   0x0000, 0x0000, 0x0000, 0x0000, 0x0000, 0x0000, 0x8000, 0x0001, 0x0000,
   0x0000, 0x0000, 0x0000, 0x0000, 0x0000, 0x8000, 0x0001, 0x0000, 0x0000,
   0x0000, 0x0000, 0x0000, 0x0000, 0x8000, 0x0001, 0x0000, 0x0000, 0x0000,
   0x0000, 0x0000, 0x0000, 0x8000, 0x0001, 0x0000, 0x0000, 0x0000, 0x0000,
   0x0000, 0x0000, 0x8000, 0x0001, 0x0000, 0x0000, 0x0000, 0x0000, 0x0000,
   0x0000, 0x8000, 0x0001, 0x0000, 0x0000, 0x0000, 0x0000, 0x0000, 0x0000,
   0x8000, 0x0001, 0x0000, 0x0000, 0x0000, 0x0000, 0x0000, 0x0000, 0x8000,
   0x0001, 0x0000, 0x0000, 0x0000, 0x0000, 0x0000, 0x0000, 0x8000, 0x0001,
   0x0000, 0x0000, 0x0000, 0x0000, 0x0000, 0x0000, 0x8000, 0x0001, 0x0000,
   0x0000, 0x0000, 0x0000, 0x0000, 0x0000, 0x8000, 0x0001, 0x0000, 0x0000,
   0x0000, 0x0000, 0x0000, 0x0000, 0x8000, 0x0001, 0x0000, 0x0000, 0x0000,
   0x0000, 0x0000, 0x0000, 0x8000, 0x0001, 0x0000, 0x0000, 0x0000, 0x0000,
   0x0000, 0x0000, 0x8000, 0x0001, 0x0000, 0x0000, 0x0000, 0x0000, 0x0000,
   0x0000, 0x8000, 0x0001, 0x0000, 0x0000, 0x0000, 0x0000, 0x0000, 0x0000,
   0x8000, 0x0001, 0x0000, 0x0000, 0x0000, 0x0000, 0x0000, 0x0000, 0x8000,
   0x0001, 0x0000, 0x0000, 0x0000, 0x0000, 0x0000, 0x0000, 0x8000, 0x0001,
   0x0000, 0x0000, 0x0000, 0x0000, 0x0000, 0x0000, 0x8000, 0x0001, 0x0000,
   0x0000, 0x0000, 0x0000, 0x0000, 0x0000, 0x8000, 0x0001, 0x0000, 0x0000,
   0x0000, 0x0000, 0x0000, 0x0000, 0x8000, 0x0001, 0x0000, 0x0000, 0x0000,
   0x0000, 0x0000, 0x0000, 0x8000, 0x0001, 0x0000, 0x0000, 0x0000, 0x0000,
   0x0000, 0x0000, 0x8000, 0x0001, 0x0000, 0x0000, 0x0000 };
